<svg width="26" height="27" viewBox="0 0 26 27" fill="none" xmlns="http://www.w3.org/2000/svg">
<path opacity="0.95" d="M14.6042 13.1428C14.6042 12.2569 13.886 11.5387 13 11.5387C12.114 11.5387 11.3958 12.2569 11.3958 13.1428C11.3958 14.0288 12.114 14.747 13 14.747C13.886 14.747 14.6042 14.0288 14.6042 13.1428ZM15.6736 13.1428C15.6736 14.6194 14.4766 15.8164 13 15.8164C11.5234 15.8164 10.3264 14.6194 10.3264 13.1428C10.3264 11.6662 11.5234 10.4692 13 10.4692C14.4766 10.4692 15.6736 11.6662 15.6736 13.1428Z" fill="white"/>
<path opacity="0.75" d="M9.01437 9.57763C9.21137 9.35784 9.54932 9.33977 9.76925 9.53661C9.98883 9.73354 10.0078 10.0706 9.81124 10.2905C9.10909 11.0744 8.72042 12.0907 8.72042 13.1431C8.72049 14.1295 9.06215 15.084 9.68331 15.8452L9.81124 15.9946L9.84542 16.0366C10.0047 16.2557 9.97538 16.5649 9.76925 16.7495C9.54927 16.9463 9.21134 16.9274 9.01437 16.7075C8.13672 15.7276 7.65116 14.4585 7.65108 13.1431C7.65108 11.8275 8.13661 10.5576 9.01437 9.57763ZM16.2312 9.53661C16.4511 9.33971 16.789 9.35771 16.986 9.57763C17.8638 10.5576 18.3484 11.8275 18.3484 13.1431L18.3435 13.3882C18.287 14.6152 17.8089 15.7887 16.986 16.7075C16.7891 16.9273 16.4511 16.9461 16.2312 16.7495C16.0112 16.5525 15.9923 16.2146 16.1892 15.9946C16.8474 15.2598 17.2298 14.3208 17.2751 13.3393L17.279 13.1431C17.279 12.0907 16.8913 11.0744 16.1892 10.2905C15.9924 10.0706 16.0113 9.73358 16.2312 9.53661Z" fill="white"/>
<path opacity="0.5" d="M7.271 7.52922C7.47785 7.31853 7.81612 7.31563 8.02686 7.52238C8.2376 7.72928 8.24059 8.06751 8.0337 8.27824C6.75932 9.57641 6.04551 11.3234 6.04542 13.1425C6.04546 14.8482 6.67348 16.4904 7.80225 17.7587L8.0337 18.0068L8.06983 18.0478C8.23923 18.2594 8.22444 18.5696 8.02686 18.7636C7.8161 18.97 7.47775 18.9664 7.271 18.7558C5.80031 17.2576 4.97612 15.2419 4.97608 13.1425C4.97617 11.0431 5.80024 9.02736 7.271 7.52922ZM17.9722 7.52238C18.1829 7.31549 18.5221 7.31849 18.729 7.52922C20.1998 9.02736 21.0238 11.0431 21.0239 13.1425C21.0239 15.2419 20.1997 17.2576 18.729 18.7558C18.5221 18.9665 18.1829 18.9705 17.9722 18.7636C17.7615 18.5567 17.7585 18.2175 17.9653 18.0068C19.2399 16.7085 19.9546 14.9618 19.9546 13.1425C19.9545 11.3232 19.2399 9.57643 17.9653 8.27824C17.7588 8.0676 17.7618 7.72924 17.9722 7.52238Z" fill="white"/>
</svg>
