<svg width="26" height="26" viewBox="0 0 26 26" fill="none" xmlns="http://www.w3.org/2000/svg">
<path d="M8.62499 7.16664C8.89347 7.16664 9.1111 7.38428 9.1111 7.65275V11.6029C9.94975 11.8188 10.5694 12.5801 10.5694 13.4861C10.5694 14.3921 9.94972 15.1531 9.1111 15.3689V18.3472C9.1111 18.6157 8.89347 18.8333 8.62499 18.8333C8.35652 18.8333 8.13888 18.6157 8.13888 18.3472V15.3689C7.30027 15.1531 6.68055 14.3921 6.68055 13.4861C6.68055 12.5801 7.30024 11.8188 8.13888 11.6029V7.65275C8.13888 7.38428 8.35652 7.16664 8.62499 7.16664ZM13 7.16664C13.2685 7.16664 13.4861 7.38428 13.4861 7.65275V8.68628C14.3248 8.90214 14.9444 9.66339 14.9444 10.5694C14.9444 11.4754 14.3247 12.2364 13.4861 12.4523V18.3472C13.4861 18.6157 13.2685 18.8333 13 18.8333C12.7315 18.8333 12.5139 18.6157 12.5139 18.3472V12.4523C11.6753 12.2364 11.0555 11.4754 11.0555 10.5694C11.0555 9.66339 11.6752 8.90214 12.5139 8.68628V7.65275C12.5139 7.38428 12.7315 7.16664 13 7.16664ZM17.375 7.16664C17.6435 7.16664 17.8611 7.38428 17.8611 7.65275V13.5474C18.6997 13.7632 19.3194 14.5245 19.3194 15.4305C19.3194 16.3365 18.6997 17.0975 17.8611 17.3134V18.3472C17.8611 18.6157 17.6435 18.8333 17.375 18.8333C17.1065 18.8333 16.8889 18.6157 16.8889 18.3472V17.3134C16.0503 17.0975 15.4305 16.3365 15.4305 15.4305C15.4305 14.5245 16.0502 13.7632 16.8889 13.5474V7.65275C16.8889 7.38428 17.1065 7.16664 17.375 7.16664ZM17.375 14.4583C16.838 14.4583 16.4028 14.8936 16.4028 15.4305C16.4028 15.9675 16.838 16.4027 17.375 16.4027C17.9119 16.4027 18.3472 15.9675 18.3472 15.4305C18.3472 14.8936 17.9119 14.4583 17.375 14.4583ZM8.62499 12.5139C8.08805 12.5139 7.65277 12.9491 7.65277 13.4861C7.65277 14.023 8.08805 14.4583 8.62499 14.4583C9.16194 14.4583 9.59722 14.023 9.59722 13.4861C9.59722 12.9491 9.16194 12.5139 8.62499 12.5139ZM13 9.59719C12.463 9.59719 12.0278 10.0325 12.0278 10.5694C12.0278 11.1064 12.463 11.5416 13 11.5416C13.5369 11.5416 13.9722 11.1064 13.9722 10.5694C13.9722 10.0325 13.5369 9.59719 13 9.59719Z" fill="white"/>
</svg>
