<svg width="22" height="22" viewBox="0 0 22 22" fill="none" xmlns="http://www.w3.org/2000/svg">
<path d="M11.0116 6.3672C12.9855 6.3672 14.611 6.97097 15.8882 8.1553C17.1655 9.33962 17.8157 10.8491 17.8157 12.6836C17.8157 14.5181 17.1655 16.0276 15.865 17.2119C14.5878 18.3962 12.9623 19 11.0116 19C9.03774 19 7.38897 18.4194 6.11176 17.2351C4.83454 16.0508 4.18433 14.5181 4.18433 12.6836C4.18433 10.8491 4.83454 9.33962 6.11176 8.1553C7.38897 6.97097 9.03774 6.3672 11.0116 6.3672ZM11.0116 8.17852C9.59507 8.17852 8.43396 8.59652 7.5283 9.43251C6.62264 10.2685 6.18142 11.3599 6.18142 12.6836C6.18142 14.0073 6.62264 15.0987 7.5283 15.9347C8.43396 16.7707 9.59507 17.1887 11.0116 17.1887C12.4049 17.1887 13.5428 16.7707 14.4485 15.9347C15.3541 15.0987 15.7954 14.0073 15.7954 12.6836C15.7954 11.3599 15.3541 10.2685 14.4485 9.43251C13.5428 8.59652 12.4049 8.17852 11.0116 8.17852ZM14.8433 3V4.67199H7.13353V3H14.8433Z" fill="white"/>
</svg>
