<svg width="26" height="26" viewBox="0 0 26 26" fill="none" xmlns="http://www.w3.org/2000/svg">
<path d="M12.761 6.105C12.9421 6.01452 13.1588 6.03402 13.3208 6.15543L17.5985 9.36377C17.7332 9.46475 17.8125 9.62337 17.8125 9.79167C17.8125 9.95998 17.7332 10.1186 17.5985 10.2196L13.8913 13L17.5985 15.7804C17.7332 15.8814 17.8125 16.04 17.8125 16.2083C17.8125 16.3766 17.7332 16.5353 17.5985 16.6362L13.3208 19.8446C13.1588 19.966 12.9421 19.9855 12.761 19.895C12.5798 19.8044 12.4653 19.6192 12.4653 19.4167V14.0694L9.04297 16.6362C8.80672 16.8133 8.47146 16.7653 8.2943 16.5291C8.11722 16.2929 8.16522 15.9576 8.40142 15.7804L12.1087 12.9997L8.40142 10.2196L8.35935 10.1844C8.16013 10.0007 8.12828 9.69236 8.2943 9.47089C8.46041 9.24942 8.76548 9.19349 8.99762 9.33333L9.04297 9.36377L12.4653 11.9303V6.58333C12.4653 6.38081 12.5798 6.19558 12.761 6.105ZM13.5347 18.3469L16.3865 16.2083L13.5347 14.0694V18.3469ZM13.5347 11.9303L16.3865 9.79167L13.5347 7.65278V11.9303Z" fill="white"/>
</svg>
