<svg width="26" height="26" viewBox="0 0 26 26" fill="none" xmlns="http://www.w3.org/2000/svg">
<path fill-rule="evenodd" clip-rule="evenodd" d="M9.29521 19.045C11.1152 19.045 12.2543 17.6686 12.2543 15.4818C12.2543 13.2868 11.1148 11.9104 9.2948 11.9104C7.4748 11.9104 6.33568 13.2868 6.33568 15.4814C6.33568 17.6609 7.4748 19.045 9.2948 19.045H9.29521ZM14.7 8.38905C14.7593 8.28749 14.7918 8.17049 14.7918 8.04374V7.76789L13.9967 7.82152C13.6815 7.84305 13.4889 7.92796 13.402 8.07624C13.3633 8.14566 13.344 8.22427 13.3463 8.30374C13.3463 8.60924 13.599 8.77742 13.9508 8.77742C14.2872 8.77742 14.5639 8.62427 14.7 8.38905ZM17.7143 9.30311C16.7661 9.30311 16.1848 8.66042 16.1848 7.60499C16.1852 6.57311 16.7661 5.93042 17.7143 5.93855C18.5325 5.93855 19.0221 6.41264 19.1061 7.03949H18.4789C18.4102 6.72627 18.1425 6.4813 17.7143 6.4813C17.1793 6.4813 16.8502 6.90217 16.8502 7.60539C16.8502 8.31633 17.1793 8.75264 17.7143 8.75264C18.1198 8.75264 18.3948 8.56171 18.4793 8.20949H19.1061C19.0221 8.85217 18.5171 9.30311 17.7143 9.30311ZM7.44433 9.24136V5.99908L8.06427 5.99177V6.51177H8.11018C8.24708 6.14452 8.57614 5.93042 9.01164 5.93042C9.45568 5.93042 9.76158 6.15995 9.90661 6.51136H9.96024C10.1207 6.16036 10.4957 5.93042 10.9466 5.93042C11.6047 5.93042 11.9866 6.32814 11.9866 7.00089V9.24177H11.3447V7.16136C11.3447 6.71002 11.1376 6.49592 10.7175 6.49592C10.2966 6.49592 10.0293 6.80183 10.0293 7.19183V9.24136H9.40205V7.0923C9.40205 6.72546 9.15749 6.49592 8.7748 6.49592C8.3848 6.49592 8.08661 6.8323 8.08661 7.25277V9.24136H7.44433ZM9.2948 10.8855C11.8184 10.8855 13.3939 12.6595 13.3939 15.4814C13.3939 18.2955 11.8184 20.0696 9.2948 20.0696C6.77158 20.07 5.19614 18.3032 5.19614 15.4814C5.19614 12.6595 6.77158 10.8855 9.29521 10.8855H9.2948ZM14.7702 8.7823C14.5712 9.11136 14.2198 9.29458 13.7912 9.29458C13.1643 9.29458 12.7057 8.92002 12.713 8.33867C12.713 7.75002 13.1489 7.41364 13.9216 7.36774L14.8007 7.31411V7.03136C14.8007 6.67183 14.5716 6.47277 14.1357 6.47277C13.7761 6.47277 13.5239 6.60277 13.4548 6.84002H12.8357C12.9047 6.29767 13.4247 5.93814 14.1661 5.93814C14.9843 5.93814 15.4434 6.34317 15.4434 7.02405V9.24136H14.8239V8.7823H14.7702ZM18.2193 14.9918C20.0698 15.3969 20.8039 16.1314 20.8039 17.3928C20.8039 19.0369 19.5116 20.0696 17.5307 20.0696C15.5888 20.0696 14.2961 19.0755 14.1893 17.5386H15.298C15.428 18.4941 16.3148 19.0755 17.5921 19.0755C18.7925 19.0755 19.6721 18.4405 19.6721 17.5687C19.6721 16.8269 19.1748 16.33 17.9439 16.0623L16.9575 15.8482C15.1757 15.4582 14.403 14.6477 14.403 13.3859C14.403 11.9255 15.6957 10.8928 17.5384 10.8928C19.3125 10.8928 20.5894 11.9559 20.643 13.4623H19.5343C19.4348 12.4832 18.6702 11.8873 17.508 11.8873C16.3989 11.8873 15.5425 12.43 15.5425 13.3323C15.5425 14.0282 16.0166 14.51 17.2325 14.7777L18.2193 14.9918Z" fill="white"/>
</svg>
