<svg width="26" height="26" viewBox="0 0 26 26" fill="none" xmlns="http://www.w3.org/2000/svg">
<path d="M12.9999 4.71181C17.5751 4.71181 21.2879 8.42473 21.288 12.9999C21.288 17.5751 17.5751 21.288 12.9999 21.288C8.42473 21.2879 4.71181 17.5751 4.71181 12.9999C4.71187 8.42476 8.42477 4.71187 12.9999 4.71181ZM16.5497 15.8407C14.1636 14.4137 11.3658 14.3599 8.62881 14.9647C8.37823 15.0182 8.17385 15.1822 8.17373 15.5263C8.17373 15.7969 8.37795 16.0545 8.70205 16.0546C8.79888 16.0546 8.96921 16.0011 9.09951 15.9677C11.4956 15.4764 13.9224 15.5296 16.0077 16.786C16.138 16.8628 16.2249 16.9071 16.3651 16.9071C16.6357 16.9071 16.8728 16.6964 16.8729 16.3925C16.8729 16.0885 16.7534 15.971 16.5497 15.8407ZM11.62 11.8837C10.2298 11.8837 9.28052 12.0781 8.35146 12.3388C8.00724 12.4357 7.83291 12.6726 7.83291 13.0302C7.83296 13.3876 8.1239 13.6785 8.48135 13.6786C8.63174 13.6786 8.71937 13.6351 8.87978 13.5917C11.6502 12.8399 14.7648 13.3376 16.8534 14.5741C16.9737 14.6376 17.0908 14.7147 17.2645 14.7147C17.6288 14.7147 17.9096 14.4233 17.913 14.0624C17.9129 13.7718 17.8056 13.5645 17.5351 13.4042C15.8842 12.4217 13.7888 11.8837 11.62 11.8837ZM11.7802 9.03603C10.3465 9.03603 9.02981 9.20059 7.85342 9.54482C7.55274 9.63169 7.27156 9.88843 7.27139 10.3427C7.27139 10.7872 7.60954 11.1317 8.05068 11.1317C8.21093 11.1317 8.36112 11.0782 8.48135 11.0448C11.2352 10.2762 15.4895 10.6176 17.869 12.038C18.0194 12.1249 18.1269 12.1679 18.3007 12.1679C18.7082 12.1677 19.0759 11.8438 19.0761 11.3895C19.0761 10.9918 18.9051 10.7841 18.6444 10.6337C16.7763 9.54429 14.2197 9.03603 11.7802 9.03603Z" fill="white"/>
</svg>
