<svg width="26" height="26" viewBox="0 0 26 26" fill="none" xmlns="http://www.w3.org/2000/svg">
<path opacity="0.95" d="M14.6875 13C14.6875 12.068 13.932 11.3125 13 11.3125C12.068 11.3125 11.3125 12.068 11.3125 13C11.3125 13.932 12.068 14.6875 13 14.6875C13.932 14.6875 14.6875 13.932 14.6875 13ZM15.8125 13C15.8125 14.5533 14.5533 15.8125 13 15.8125C11.4467 15.8125 10.1875 14.5533 10.1875 13C10.1875 11.4467 11.4467 10.1875 13 10.1875C14.5533 10.1875 15.8125 11.4467 15.8125 13Z" fill="white"/>
<path opacity="0.75" d="M8.80779 9.25002C9.01502 9.01876 9.37036 8.99899 9.60173 9.20607C9.83277 9.41333 9.85267 9.76872 9.64568 10C8.90705 10.8246 8.49822 11.893 8.49822 13C8.49826 14.0378 8.85746 15.042 9.51091 15.8428L9.64568 16L9.68181 16.0449C9.84915 16.2754 9.8184 16.5998 9.60173 16.794C9.37043 17.001 9.01505 16.9811 8.80779 16.75C7.88448 15.7192 7.37327 14.3839 7.37322 13C7.37322 11.6161 7.88443 10.2809 8.80779 9.25002ZM16.3986 9.20607C16.63 8.99894 16.9853 9.01867 17.1926 9.25002C18.1159 10.2809 18.6271 11.6161 18.6271 13L18.6213 13.2588C18.5618 14.5496 18.0582 15.7836 17.1926 16.75C16.9853 16.9812 16.63 17.001 16.3986 16.794C16.1673 16.5868 16.1477 16.2314 16.3547 16C17.0471 15.227 17.4496 14.2395 17.4972 13.2071L17.5021 13C17.5021 11.8931 17.0932 10.8246 16.3547 10C16.1476 9.76866 16.1674 9.41333 16.3986 9.20607Z" fill="white"/>
<path opacity="0.5" d="M6.97332 7.09444C7.19094 6.87298 7.54759 6.87013 7.76921 7.0876C7.99059 7.3052 7.99342 7.66091 7.77605 7.88252C6.43538 9.24814 5.68435 11.086 5.68425 12.9997C5.68427 14.7939 6.3447 16.521 7.53191 17.8552L7.77605 18.1169L7.81414 18.1599C7.99232 18.3824 7.97699 18.7087 7.76921 18.9128C7.54752 19.1303 7.19092 19.1266 6.97332 18.905C5.42613 17.329 4.55927 15.2083 4.55925 12.9997C4.55935 10.7912 5.42613 8.67041 6.97332 7.09444ZM18.2311 7.0876C18.4527 6.87014 18.8084 6.87314 19.0261 7.09444C20.5733 8.67042 21.44 10.7912 21.4401 12.9997C21.4401 15.2084 20.5734 17.3289 19.0261 18.905C18.8085 19.1265 18.4528 19.1301 18.2311 18.9128C18.0095 18.6952 18.0058 18.3386 18.2233 18.1169C19.5641 16.7512 20.3151 14.9136 20.3151 12.9997C20.315 11.086 19.564 9.24815 18.2233 7.88252C18.006 7.66081 18.0096 7.30512 18.2311 7.0876Z" fill="white"/>
</svg>
